# xmcd
#
# Track frame offsets:
#	150
#	22283
#	37719
#	54706
#	70507
#	82948
#	102207
#	116244
#	129980
#	151506
#	169975
#	185653
#	216391
#	232772
#	253514
#
# Disc length: 3654 seconds
#
# Revision: 1
# Processed by: cddbd v1.5.2PL0 Copyright (c) Steve Scherf et al.
# Submitted via: audiograbber 1.83.01
#
DISCID=c00e440f
DTITLE=Brian McDade - Love Bayou
DYEAR=2004
DGENRE=Blues
TTITLE0=Houselights
TTITLE1=Two Hoots
TTITLE2=Paris
TTITLE3=Love Bayou
TTITLE4=Repossed
TTITLE5=Sunset (Over Bargeddie)
TTITLE6=Promises
TTITLE7=Byrd
TTITLE8=Santa Anna Winds
TTITLE9=Blood On A Desert Rose
TTITLE10=Missing Miss Someone
TTITLE11=Blue Moon Mississippi Girl
TTITLE12=The Night You Lit Up The Blues
TTITLE13=People In Grass Houses
TTITLE14=Bladedge Of Bohemia
EXTD=
EXTT0=
EXTT1=
EXTT2=
EXTT3=
EXTT4=
EXTT5=
EXTT6=
EXTT7=
EXTT8=
EXTT9=
EXTT10=
EXTT11=
EXTT12=
EXTT13=
EXTT14=
PLAYORDER=
